<?xml version="1.0" encoding="UTF-8"?>
<svg width="1092px" height="1100px" viewBox="0 0 1092 1100" version="1.1" xmlns="http://www.w3.org/2000/svg" xmlns:xlink="http://www.w3.org/1999/xlink">
    <!-- Generator: Sketch 47.1 (45422) - http://www.bohemiancoding.com/sketch -->
    <title>consultation</title>
    <desc>Created with Sketch.</desc>
    <defs></defs>
    <g id="Page-1" stroke="none" stroke-width="1" fill="none" fill-rule="evenodd">
        <g id="consultation" fill-rule="nonzero" fill="#FFFFFF">
            <path d="M959.505,658.459 C958.542,658.459 957.591,658.531 956.633,658.552 C975.311,606.613 985.553,550.683 985.553,492.391 C985.553,220.885 764.668,0 493.161,0 C221.654,0 0.766,220.885 0.766,492.392 C0.766,610.781 42.783,719.529 112.664,804.553 C88.422,817.14 71.797,842.439 71.797,871.588 C71.797,913.234 105.676,947.12 147.323,947.12 C178.911,947.12 205.998,927.605 217.256,900.014 C233.34,910.936 250.16,920.828 267.522,929.82 L267.522,979.276 C267.522,1045.844 321.685,1100 388.252,1100 C453.094,1100 506.008,1048.578 508.718,984.392 C569.397,982.495 627.342,969.639 680.612,947.621 C746.527,1028.266 834.908,1092.747 840.803,1097.003 C843.564,1098.999 846.814,1099.999 850.063,1099.999 C853.312,1099.999 856.563,1098.998 859.325,1097.003 C868.777,1090.177 1090.339,928.536 1091.216,793.009 C1091.235,792.663 1091.24,792.311 1091.235,791.953 C1090.12,718.349 1031.034,658.459 959.505,658.459 Z M640.523,792.923 C640.523,792.756 640.529,792.522 640.523,792.274 C641.449,735.918 686.313,690.09 740.613,690.09 C783.056,690.09 821.018,718.082 835.074,759.741 C837.249,766.166 843.277,770.497 850.061,770.497 C856.845,770.497 862.875,766.166 865.05,759.741 C879.104,718.083 917.068,690.09 959.505,690.09 C1013.853,690.09 1058.754,735.998 1059.6,792.435 L1059.606,792.435 C1059.6,792.565 1059.6,792.694 1059.6,792.824 C1059.6,897.541 891.733,1032.518 850.055,1064.409 C808.385,1032.542 640.523,897.652 640.523,792.923 Z M170.053,871.587 C170.053,884.14 159.876,894.315 147.324,894.315 C134.772,894.315 124.595,884.139 124.595,871.587 C124.595,859.035 134.772,848.858 147.324,848.858 C159.876,848.858 170.053,859.034 170.053,871.587 Z M222.518,864.961 C219.61,831.72 195.107,804.594 163.137,797.751 L163.137,760.736 C163.137,731.959 186.551,708.544 215.328,708.544 C244.107,708.544 267.52,731.958 267.52,760.736 L267.52,893.898 C251.936,885.105 236.914,875.448 222.518,864.961 Z M388.251,1068.368 C339.124,1068.368 299.153,1028.403 299.153,979.275 L299.153,944.884 C354.06,968.517 414.101,982.343 477.085,984.378 C474.419,1031.127 435.655,1068.368 388.251,1068.368 Z M493.159,676.913 C455.862,676.913 424.577,650.992 416.166,616.238 C439.873,626.18 465.884,631.691 493.159,631.691 C520.438,631.691 546.45,626.179 570.161,616.236 C561.75,650.99 530.463,676.913 493.159,676.913 Z M508.974,952.754 L508.974,707.283 C562.542,699.583 603.893,653.594 604.073,597.973 C657.598,562.101 692.912,501.075 692.912,431.943 L692.912,317.681 C706.86,311.566 716.635,297.644 716.635,281.466 L716.635,191.317 C716.635,169.515 698.898,151.778 677.095,151.778 C663.603,151.778 651.679,158.582 644.54,168.928 L627.425,168.928 C600.575,168.928 578.736,190.767 578.736,217.611 C578.736,244.46 600.574,266.3 627.425,266.3 L637.556,266.3 L637.556,281.467 C637.556,297.645 647.333,311.567 661.279,317.682 L661.279,431.944 C661.279,524.645 585.858,600.06 493.157,600.06 C400.456,600.06 325.042,524.645 325.042,431.944 L325.042,317.681 C338.988,311.566 348.765,297.644 348.765,281.466 L348.765,266.299 L358.89,266.299 C385.74,266.299 407.58,244.46 407.58,217.61 C407.58,190.767 385.74,168.927 358.89,168.927 L341.781,168.927 C334.643,158.581 322.718,151.777 309.226,151.777 C287.423,151.777 269.686,169.514 269.686,191.316 L269.686,281.465 C269.686,297.643 279.463,311.565 293.409,317.68 L293.409,431.942 C293.409,501.076 328.723,562.104 382.248,597.975 C382.432,653.595 423.781,699.581 477.341,707.281 L477.341,952.752 C413.873,950.596 353.641,935.579 299.149,910.172 L299.149,760.736 C299.149,714.518 261.544,676.913 215.325,676.913 C169.108,676.913 131.503,714.518 131.503,760.736 L131.503,777.378 C69.525,698.895 32.394,599.929 32.394,492.392 C32.394,238.328 239.09,31.631 493.154,31.631 C747.221,31.631 953.918,238.328 953.918,492.392 C953.918,553.269 941.94,611.371 920.398,664.617 C891.745,673.817 866.833,692.877 850.058,718.658 C825.995,681.676 785.208,658.459 740.61,658.459 C669.075,658.459 609.989,718.349 608.9,792.046 C608.895,792.201 608.889,792.67 608.889,792.825 C608.889,834.93 630.513,879.679 660.559,921.541 C613.298,940.043 562.284,950.943 508.974,952.754 Z M635.975,200.559 L635.975,234.668 L627.426,234.668 C618.023,234.668 610.369,227.013 610.369,217.611 C610.369,208.209 618.023,200.56 627.426,200.56 L635.975,200.56 L635.975,200.559 Z M350.349,234.668 L350.349,200.559 L358.892,200.559 C368.295,200.559 375.951,208.208 375.951,217.61 C375.951,227.012 368.296,234.667 358.892,234.667 L350.349,234.667 L350.349,234.668 Z" id="Shape"></path>
        </g>
    </g>
</svg>