<?xml version="1.0" encoding="UTF-8"?>
<svg width="1056px" height="1101px" viewBox="0 0 1056 1101" version="1.1" xmlns="http://www.w3.org/2000/svg" xmlns:xlink="http://www.w3.org/1999/xlink">
    <!-- Generator: Sketch 47.1 (45422) - http://www.bohemiancoding.com/sketch -->
    <title>pharmacy</title>
    <desc>Created with Sketch.</desc>
    <defs></defs>
    <g id="Page-1" stroke="none" stroke-width="1" fill="none" fill-rule="evenodd">
        <g id="pharmacy" fill-rule="nonzero" fill="#FFFFFF">
            <path d="M1044.641,304.939 C1035.914,293.215 1023.138,285.59 1008.674,283.471 C994.189,281.337 979.774,284.994 968.056,293.723 L945.953,310.178 C865.517,181.63 725.972,93.714 565.627,84.93 L487.898,14.218 C465.569,-6.088 430.88,-4.445 410.573,17.877 C400.739,28.692 395.702,42.691 396.395,57.291 C397.079,71.895 403.418,85.355 414.232,95.189 L418.89,99.426 C253.24,142.333 122.165,271.795 76.742,436.428 L70.956,434.699 C42.05,426.066 11.488,442.553 2.841,471.468 C-5.797,500.383 10.7,530.939 39.613,539.581 L59.894,545.642 C59.668,551.688 59.433,557.733 59.433,563.833 C59.433,702.374 118.54,827.313 212.778,914.958 L167.438,927.409 C161.981,928.907 156.944,931.184 152.411,934.088 C149.39,936.024 146.595,938.239 144.049,940.687 C142.776,941.911 141.566,943.193 140.422,944.528 C132.415,953.872 127.643,965.793 127.211,978.345 C127.026,983.724 127.638,989.22 129.137,994.678 C135.805,1018.95 157.903,1034.926 181.941,1034.926 C186.72,1034.926 191.583,1034.294 196.409,1032.967 L300.876,1004.287 L300.876,1046.079 C300.876,1075.813 325.065,1100.004 354.801,1100.004 L708.393,1100.004 C738.129,1100.004 762.318,1075.813 762.318,1046.079 L762.318,988.219 C816.87,959.409 865.202,920.406 904.811,873.736 L929.032,893.895 C938.957,902.155 951.193,906.564 963.946,906.564 C965.636,906.564 967.334,906.489 969.032,906.332 C974.49,905.832 979.754,904.546 984.696,902.542 C992.93,899.201 1000.267,893.864 1006.116,886.841 C1006.116,886.838 1006.116,886.838 1006.116,886.838 C1025.418,863.643 1022.252,829.068 999.063,809.761 L965.965,782.215 C999.64,716.661 1018.777,642.464 1018.777,563.837 C1018.777,510.442 1009.876,459.117 993.702,411.106 L1033.427,381.53 C1057.635,363.5 1062.666,329.145 1044.641,304.939 Z M1015.024,356.808 L962.576,395.856 L934.011,357.49 L986.462,318.441 C990.632,315.335 995.585,313.702 1000.688,313.702 C1001.856,313.702 1003.029,313.789 1004.21,313.961 C1010.53,314.885 1016.114,318.219 1019.93,323.344 C1027.802,333.92 1025.604,348.933 1015.024,356.808 Z M427.172,55.835 C426.872,49.456 429.074,43.338 433.365,38.613 C438.084,33.431 444.566,30.801 451.078,30.801 C456.825,30.801 462.585,32.853 467.158,37.012 L515.526,81.012 L483.338,116.396 L434.967,72.394 C430.242,68.098 427.474,62.218 427.172,55.835 Z M32.367,480.29 C35.466,469.93 44.999,463.219 55.297,463.219 C57.56,463.219 59.859,463.544 62.133,464.224 L124.779,482.946 L111.082,528.776 L48.436,510.054 C35.798,506.278 28.593,492.923 32.367,480.29 Z M450.416,1012.183 C441.912,1012.318 435.123,1019.324 435.256,1027.834 C435.394,1036.257 442.262,1042.994 450.656,1042.994 C450.741,1042.994 450.824,1042.994 450.909,1042.991 C542.043,1041.54 636.382,1041.513 731.504,1042.817 L731.504,1046.075 C731.504,1058.819 721.135,1069.185 708.394,1069.185 L354.801,1069.185 C342.061,1069.185 331.691,1058.819 331.691,1046.075 L331.691,896.599 L731.504,896.599 L731.504,1012.003 C636.215,1010.7 541.712,1010.728 450.416,1012.183 Z M279.646,978.16 L266.98,932.03 L300.877,922.724 L300.877,972.331 L279.646,978.16 Z M338.172,440.897 L338.172,279.319 L375.468,279.319 L375.468,440.897 L338.172,440.897 L338.172,440.897 Z M406.283,279.319 L445.831,279.319 L445.831,440.897 L406.283,440.897 L406.283,279.319 Z M516.191,279.319 L516.191,440.897 L504.25,440.897 L476.643,440.897 L476.643,279.319 L516.191,279.319 Z M586.545,279.319 L586.545,440.897 L558.945,440.897 L547.004,440.897 L547.004,279.319 L586.545,279.319 Z M656.906,279.319 L656.906,440.897 L617.36,440.897 L617.36,279.319 L656.906,279.319 Z M725.016,279.319 L725.016,440.897 L687.72,440.897 L687.72,279.319 L725.016,279.319 Z M504.25,471.711 L558.945,471.711 C654.095,471.711 731.504,549.119 731.504,644.27 L731.504,660.128 L331.691,660.128 L331.691,644.27 C331.691,549.119 409.1,471.711 504.25,471.711 Z M608.862,751.404 L608.862,805.323 L558.556,805.323 L558.556,855.629 L504.638,855.629 L504.638,805.323 L454.33,805.323 L454.33,751.404 L504.637,751.404 L504.637,701.098 L558.555,701.098 L558.555,751.404 L608.862,751.404 Z M875.902,809.581 L825.643,767.752 C815.508,759.314 814.124,744.205 822.562,734.067 C826.649,729.156 832.402,726.132 838.763,725.548 C839.51,725.482 840.251,725.446 840.99,725.446 C846.558,725.446 851.908,727.375 856.241,730.983 L906.503,772.814 L875.902,809.581 Z M941.705,762.02 L938.061,758.987 C938.059,758.985 938.056,758.984 938.055,758.983 L875.957,707.3 C864.716,697.942 850.452,693.53 835.959,694.863 C821.402,696.196 808.233,703.117 798.873,714.356 C779.573,737.551 782.738,772.126 805.927,791.433 L881.138,854.03 C847.623,893.472 807.433,927.027 762.317,953.005 L762.317,644.27 C762.317,571.558 723.935,507.672 666.393,471.711 L740.423,471.711 C748.932,471.711 755.829,464.814 755.829,456.304 L755.829,263.911 C755.829,255.401 748.932,248.504 740.423,248.504 L322.766,248.504 C314.255,248.504 307.36,255.401 307.36,263.911 L307.36,456.304 C307.36,464.814 314.256,471.711 322.766,471.711 L396.802,471.711 C339.26,507.672 300.877,571.557 300.877,644.27 L300.877,890.771 L248.183,905.239 C151.636,822.846 90.248,700.409 90.248,563.833 C90.248,560.797 90.417,557.803 90.479,554.782 L117.017,562.713 C117.019,562.714 117.02,562.715 117.023,562.716 L132.848,567.445 L193.064,585.441 C198.271,586.997 203.53,587.737 208.706,587.737 C208.708,587.737 208.708,587.737 208.709,587.737 C208.71,587.737 208.711,587.737 208.712,587.737 C218.674,587.737 228.243,584.855 236.601,579.894 C248.01,573.122 257.089,562.358 261.18,548.678 C261.18,548.675 261.18,548.675 261.18,548.672 C269.816,519.757 253.321,489.202 224.407,480.559 L106.264,445.25 C150.405,284.332 281.99,159.248 446.581,124.616 L473.976,149.537 C473.984,149.544 473.989,149.553 473.996,149.559 L532.706,202.966 C542.864,212.207 555.834,217.211 569.471,217.211 C569.473,217.211 569.474,217.211 569.476,217.211 C569.478,217.211 569.478,217.211 569.478,217.211 C570.357,217.211 571.236,217.19 572.121,217.148 C575.771,216.976 579.353,216.45 582.821,215.59 C586.291,214.73 589.651,213.535 592.86,212.024 C599.28,209.002 605.104,204.714 610.024,199.306 C619.864,188.494 624.902,174.495 624.209,159.895 L624.209,159.895 C624.209,159.894 624.209,159.893 624.209,159.892 C624.154,158.714 624,157.556 623.872,156.394 C623.801,155.756 623.779,155.108 623.687,154.475 C623.654,154.247 623.591,154.027 623.555,153.799 C621.614,141.574 615.661,130.443 606.371,121.993 L603.86,119.708 C737.861,139.16 852.843,217.996 921.192,328.613 L839.59,389.366 C815.384,407.391 810.353,441.747 828.377,465.953 C837.104,477.677 849.882,485.302 864.343,487.421 C867.033,487.815 869.723,488.011 872.389,488.011 C884.084,488.011 895.416,484.277 904.961,477.169 L967.729,430.439 C980.877,472.597 987.964,517.402 987.964,563.832 C987.963,634.946 971.27,702.207 941.705,762.02 Z" id="Shape"></path>
            <path d="M256.569,716.364 L249.636,716.364 L249.636,709.431 C249.636,702.624 244.118,697.105 237.31,697.105 C230.504,697.105 224.986,702.624 224.986,709.431 L224.986,716.364 L218.053,716.364 C211.247,716.364 205.727,721.883 205.727,728.69 C205.727,735.497 211.246,741.015 218.053,741.015 L224.986,741.015 L224.986,747.948 C224.986,754.755 230.504,760.274 237.31,760.274 C244.118,760.274 249.636,754.755 249.636,747.948 L249.636,741.015 L256.569,741.015 C263.377,741.015 268.895,735.496 268.895,728.69 C268.895,721.883 263.377,716.364 256.569,716.364 Z" id="Shape"></path>
            <path d="M206.497,393.27 L199.564,393.27 L199.564,386.337 C199.564,379.53 194.045,374.011 187.238,374.011 C180.432,374.011 174.912,379.53 174.912,386.337 L174.912,393.27 L167.979,393.27 C161.173,393.27 155.653,398.789 155.653,405.596 C155.653,412.403 161.172,417.922 167.979,417.922 L174.912,417.922 L174.912,424.855 C174.912,431.662 180.431,437.181 187.238,437.181 C194.044,437.181 199.564,431.662 199.564,424.855 L199.564,417.922 L206.497,417.922 C213.303,417.922 218.823,412.403 218.823,405.596 C218.823,398.789 213.303,393.27 206.497,393.27 Z" id="Shape"></path>
            <path d="M826.017,317.571 L826.017,310.638 L832.95,310.638 C839.756,310.638 845.276,305.119 845.276,298.312 C845.276,291.505 839.757,285.986 832.95,285.986 L826.017,285.986 L826.017,279.053 C826.017,272.246 820.499,266.727 813.691,266.727 C806.885,266.727 801.365,272.246 801.365,279.053 L801.365,285.986 L794.432,285.986 C787.626,285.986 782.106,291.505 782.106,298.312 C782.106,305.119 787.625,310.638 794.432,310.638 L801.365,310.638 L801.365,317.571 C801.365,324.378 806.884,329.897 813.691,329.897 C820.499,329.897 826.017,324.378 826.017,317.571 Z" id="Shape"></path>
            <path d="M450.283,176.362 L443.351,176.362 L443.351,169.429 C443.351,162.622 437.832,157.103 431.025,157.103 C424.217,157.103 418.699,162.622 418.699,169.429 L418.699,176.362 L411.766,176.362 C404.958,176.362 399.44,181.881 399.44,188.688 C399.44,195.495 404.958,201.014 411.766,201.014 L418.699,201.014 L418.699,207.947 C418.699,214.754 424.217,220.273 431.025,220.273 C437.831,220.273 443.351,214.754 443.351,207.947 L443.351,201.014 L450.283,201.014 C457.091,201.014 462.609,195.495 462.609,188.688 C462.608,181.881 457.091,176.362 450.283,176.362 Z" id="Shape"></path>
            <path d="M921.757,594.648 L914.824,594.648 L914.824,587.715 C914.824,580.908 909.306,575.389 902.498,575.389 C895.692,575.389 890.172,580.908 890.172,587.715 L890.172,594.648 L883.239,594.648 C876.433,594.648 870.913,600.167 870.913,606.974 C870.913,613.781 876.432,619.3 883.239,619.3 L890.172,619.3 L890.172,626.233 C890.172,633.04 895.691,638.559 902.498,638.559 C909.306,638.559 914.824,633.04 914.824,626.233 L914.824,619.3 L921.757,619.3 C928.565,619.3 934.083,613.781 934.083,606.974 C934.083,600.167 928.565,594.648 921.757,594.648 Z" id="Shape"></path>
            <path d="M401.083,1012.18 L372.033,1012.18 C363.522,1012.18 356.625,1019.077 356.625,1027.587 C356.625,1036.097 363.522,1042.994 372.033,1042.994 L401.083,1042.994 C409.594,1042.994 416.489,1036.097 416.489,1027.587 C416.49,1019.077 409.594,1012.18 401.083,1012.18 Z" id="Shape"></path>
        </g>
    </g>
</svg>