<?xml version="1.0" encoding="UTF-8"?>
<svg width="1094px" height="1100px" viewBox="0 0 1094 1100" version="1.1" xmlns="http://www.w3.org/2000/svg" xmlns:xlink="http://www.w3.org/1999/xlink">
    <!-- Generator: Sketch 47.1 (45422) - http://www.bohemiancoding.com/sketch -->
    <title>triage</title>
    <desc>Created with Sketch.</desc>
    <defs></defs>
    <g id="Page-1" stroke="none" stroke-width="1" fill="none" fill-rule="evenodd">
        <g id="triage" fill-rule="nonzero" fill="#FFFFFF">
            <path d="M335.826,771.321 C335.826,778.676 341.79,784.638 349.144,784.638 L683.755,784.638 C691.109,784.638 697.071,778.675 697.071,771.321 C697.071,763.966 691.109,758.003 683.755,758.003 L349.144,758.003 C341.79,758.004 335.826,763.966 335.826,771.321 Z" id="Shape"></path>
            <path d="M349.144,839.575 L683.755,839.575 C691.109,839.575 697.071,833.612 697.071,826.258 C697.071,818.903 691.109,812.94 683.755,812.94 L349.144,812.94 C341.79,812.94 335.826,818.903 335.826,826.258 C335.826,833.612 341.79,839.575 349.144,839.575 Z" id="Shape"></path>
            <path d="M349.144,894.511 L683.755,894.511 C691.109,894.511 697.071,888.548 697.071,881.193 C697.071,873.838 691.109,867.875 683.755,867.875 L349.144,867.875 C341.79,867.875 335.826,873.838 335.826,881.193 C335.826,888.548 341.79,894.511 349.144,894.511 Z" id="Shape"></path>
            <path d="M349.144,949.446 L683.755,949.446 C691.109,949.446 697.071,943.483 697.071,936.129 C697.071,928.774 691.109,922.811 683.755,922.811 L349.144,922.811 C341.79,922.811 335.826,928.774 335.826,936.129 C335.826,943.484 341.79,949.446 349.144,949.446 Z" id="Shape"></path>
            <path d="M518.393,224.184 C527.589,224.184 535.041,216.731 535.041,207.537 L535.041,204.208 C535.041,195.013 527.588,187.561 518.393,187.561 C509.199,187.561 501.747,195.014 501.747,204.208 L501.747,207.537 C501.747,216.731 509.199,224.184 518.393,224.184 Z" id="Shape"></path>
            <path d="M518.392,705.842 C591.941,705.842 651.562,646.219 651.562,572.672 C651.562,499.124 591.94,439.502 518.392,439.502 C444.845,439.502 385.222,499.124 385.222,572.672 C385.221,646.22 444.845,705.842 518.392,705.842 Z M439.766,545.237 L490.957,545.237 L490.957,494.045 L545.826,494.045 L545.826,545.237 L597.019,545.237 L597.019,600.105 L545.826,600.105 L545.826,651.297 L490.957,651.297 L490.957,600.105 L439.766,600.105 L439.766,545.237 L439.766,545.237 Z" id="Shape"></path>
            <path d="M1069.456,680.662 L1093.77,501.948 C1094.25,498.449 1093.314,494.902 1091.176,492.093 C1089.036,489.281 1085.869,487.434 1082.37,486.956 L1052.446,482.885 L1054.934,464.586 C1055.929,457.3 1050.825,450.586 1043.536,449.594 L1031.778,447.995 C997.356,195.356 780.325,0 518.392,0 C232.61,0 0.107,232.499 0.107,518.282 C0.107,676.866 71.773,818.963 184.338,914.11 L184.338,1052.618 C184.338,1078.746 205.588,1100.001 231.717,1100.001 L805.064,1100.001 C831.193,1100.001 852.445,1078.746 852.445,1052.618 L852.445,914.111 C871.872,897.69 890.057,879.865 906.885,860.8 L893.253,961.02 C893.251,961.026 893.25,961.032 893.25,961.038 L884.51,1025.289 C883.17,1035.102 885.758,1044.869 891.779,1052.789 C897.007,1059.664 904.332,1064.241 912.577,1066.248 L910.495,1081.558 C909.5,1088.845 914.605,1095.559 921.895,1096.55 C922.505,1096.631 923.111,1096.67 923.709,1096.67 C930.263,1096.67 935.979,1091.825 936.883,1085.147 L938.95,1069.952 C939.355,1069.965 939.762,1070.034 940.167,1070.034 C948.23,1070.034 956.047,1067.407 962.601,1062.422 C970.522,1056.397 975.62,1047.677 976.953,1037.861 L983.636,988.736 C983.636,988.732 983.638,988.729 983.638,988.725 L1037.964,589.351 L1037.964,589.351 L1037.964,589.351 L1044.948,537.998 C1044.95,537.99 1044.953,537.983 1044.953,537.976 L1048.856,509.279 L1065.586,511.555 L1043.118,676.672 C1041.838,683.227 1037.273,711.251 1048.614,728.805 C1051.163,732.749 1055.443,734.898 1059.812,734.895 C1062.289,734.895 1064.792,734.206 1067.024,732.762 C1073.201,728.772 1074.977,720.527 1070.983,714.349 C1066.712,707.736 1067.464,690.828 1069.313,681.503 C1069.371,681.225 1069.417,680.945 1069.456,680.662 Z M977.101,542.19 L1016.768,547.585 L1013.37,572.565 L973.703,567.169 L977.101,542.19 Z M970.113,593.564 L1009.78,598.961 L959.045,971.941 L919.378,966.547 L970.113,593.564 Z M464.104,260.251 L470.454,269.114 C473.705,273.65 478.817,276.065 483.999,276.065 C487.355,276.065 490.743,275.054 493.683,272.95 C501.154,267.595 502.87,257.197 497.519,249.722 L485.951,233.575 C485.878,233.473 485.783,233.399 485.709,233.3 C485.646,233.221 485.619,233.124 485.555,233.045 C479.266,225.378 475.944,216.076 475.944,206.146 C475.944,182.739 494.983,163.695 518.394,163.695 C541.805,163.695 560.844,182.739 560.844,206.146 C560.844,216.076 557.522,225.375 551.228,233.042 C551.194,233.082 551.181,233.133 551.148,233.173 C551.036,233.318 550.899,233.429 550.792,233.578 L539.229,249.724 C533.871,257.199 535.595,267.6 543.073,272.952 C546.005,275.052 549.393,276.064 552.749,276.064 C557.938,276.064 563.05,273.648 566.294,269.109 L572.639,260.249 L627.433,260.249 L627.433,368.456 L409.354,368.456 L409.354,260.251 L464.104,260.251 Z M392.706,401.753 L644.081,401.753 C653.275,401.753 660.727,394.301 660.727,385.106 L660.727,365.812 L749.237,365.812 L749.237,996.788 L287.55,996.788 L287.55,365.811 L376.059,365.811 L376.059,385.105 C376.06,394.301 383.512,401.753 392.706,401.753 Z M852.444,869.381 L852.444,309.978 C852.444,283.853 831.192,262.599 805.063,262.599 L660.727,262.599 L660.727,243.604 C660.727,234.409 653.274,226.957 644.081,226.957 L591.213,226.957 C593.138,220.23 594.14,213.223 594.14,206.148 C594.14,164.384 560.162,130.403 518.394,130.403 C476.626,130.403 442.65,164.384 442.65,206.148 C442.65,213.223 443.652,220.227 445.575,226.957 L392.707,226.957 C383.513,226.957 376.06,234.409 376.06,243.604 L376.06,262.599 L231.716,262.599 C205.587,262.599 184.337,283.854 184.337,309.978 L184.337,869.381 C91.465,780.976 33.401,656.321 33.401,518.282 C33.401,250.86 250.967,33.295 518.388,33.295 C760.33,33.295 961.431,211.378 997.569,443.34 L977.48,440.607 C973.994,440.132 970.438,441.065 967.621,443.205 C964.811,445.341 962.965,448.511 962.49,452.01 L956.004,499.698 C956.004,499.703 956.001,499.709 956.001,499.715 L945.518,576.774 C945.518,576.775 945.518,576.776 945.518,576.777 C945.518,576.778 945.518,576.779 945.518,576.78 L915.713,795.896 C897.092,822.466 875.882,847.069 852.444,869.381 Z" id="Shape"></path>
        </g>
    </g>
</svg>